<svg width="512" height="512" viewBox="0 0 512 512" fill="none" xmlns="http://www.w3.org/2000/svg">
<g clip-path="url(#clip0)">
<rect width="512" height="512" fill="white"/>
<rect x="-1" y="1" width="513" height="509" fill="url(#paint0_linear)"/>
<circle cx="322.403" cy="74.4031" r="68.0984" transform="rotate(-75 322.403 74.4031)" fill="url(#paint1_linear)"/>
<path d="M462.668 212.737L521 310.096L214 321L346.005 169.994L364.671 184.242L392.67 132L451.002 229.359L462.668 212.737Z" fill="url(#paint2_linear)"/>
<path d="M314.712 96.0416L86.1345 133.481L48.3193 1H0V512H500L413.934 334.288L323.529 320.638L274.368 179.161C273.553 176.816 273.555 174.263 274.375 171.92L287.653 133.945C287.76 133.638 287.917 133.351 288.116 133.094L315.663 97.642C316.221 96.9241 315.609 95.8946 314.712 96.0416Z" fill="url(#paint3_linear)"/>
<path d="M407.75 281.061L513 132V512H92L262.505 306.254L407.75 281.061Z" fill="url(#paint4_linear)"/>
<path d="M38 153L82.7304 131.929L314.446 94.4134C315.349 94.2674 315.958 95.3086 315.388 96.0236L308.609 104.536L38 153Z" fill="url(#paint5_linear)"/>
<rect y="449" width="25" height="67" fill="black"/>
<path d="M132.216 266L92.3529 337.5L60.8824 390.074L113.333 371.147L60.8824 457.368L98.6471 448.956L46.1961 516.25L98.6471 505.735L42 552H256L203.549 505.735L247.608 512.044L186.765 436.338L226.627 448.956L167.882 362.735L203.549 381.662L132.216 266Z" fill="#020A04"/>
<path d="M80.0303 310.226L0 197V440.226L10.5303 457L27.3788 446.516L42.1212 457L56.8636 440.226L80.0303 457V440.226L139 446.516L56.8636 352.161L98.9848 368.935L42.1212 297.645L80.0303 310.226Z" fill="black"/>
<path d="M387.382 224L344.353 300.75L310.382 357.184L367 336.868L310.382 429.419L351.147 420.39L294.529 492.625L351.147 481.338L290 531H521L464.382 481.338L511.941 488.11L446.265 406.846L489.294 420.39L425.882 327.838L464.382 348.154L387.382 224Z" fill="#021710"/>
</g>
<defs>
<linearGradient id="paint0_linear" x1="255.5" y1="1" x2="255.5" y2="510" gradientUnits="userSpaceOnUse">
<stop stop-color="#FF8A65"/>
<stop offset="1" stop-color="#AF9BFF"/>
</linearGradient>
<linearGradient id="paint1_linear" x1="322.403" y1="6.30476" x2="322.403" y2="142.502" gradientUnits="userSpaceOnUse">
<stop stop-color="#FFE7C2"/>
<stop offset="1" stop-color="white" stop-opacity="0"/>
</linearGradient>
<linearGradient id="paint2_linear" x1="367.5" y1="132" x2="367.5" y2="321" gradientUnits="userSpaceOnUse">
<stop stop-color="#FFE3E3"/>
<stop offset="0.182292" stop-color="#363636"/>
<stop offset="0.9999" stop-color="#040404"/>
<stop offset="1" stop-color="#272727" stop-opacity="0"/>
<stop offset="1" stop-color="#818181"/>
</linearGradient>
<linearGradient id="paint3_linear" x1="250" y1="154.51" x2="250" y2="512" gradientUnits="userSpaceOnUse">
<stop/>
<stop offset="1" stop-color="#252525"/>
</linearGradient>
<linearGradient id="paint4_linear" x1="301.448" y1="243.271" x2="301.448" y2="512" gradientUnits="userSpaceOnUse">
<stop/>
<stop offset="1" stop-color="#272727"/>
</linearGradient>
<linearGradient id="paint5_linear" x1="306.382" y1="94" x2="61.6712" y2="147.776" gradientUnits="userSpaceOnUse">
<stop stop-color="#DCDCDC" stop-opacity="0.5"/>
<stop offset="1" stop-color="#C4C4C4" stop-opacity="0"/>
</linearGradient>
<clipPath id="clip0">
<rect width="512" height="512" fill="white"/>
</clipPath>
</defs>
</svg>
